name Run_20002_GRF.mot
datacolumns 19
datarows 23
range 1.16 1.182
endheader
time	     ground_force_vx	     ground_force_vy	     ground_force_vz	     ground_force_px	     ground_force_py	     ground_force_pz	   l_ground_force_vx	   l_ground_force_vy	   l_ground_force_vz	   l_ground_force_px	   l_ground_force_py	   l_ground_force_pz	     ground_torque_x	     ground_torque_y	     ground_torque_z	   l_ground_torque_x	   l_ground_torque_y	   l_ground_torque_z	
1.16	         47.06093200	       1181.48913600	        -22.90635100	          0.92567400	          0.00000000	         -0.28906700	          0.00000000	          0.00000000	          0.00000000	          0.00000000	          0.00000000	          0.00000000	          0.00000000	          0.31404100	          0.00000000	          0.00000000	          0.00000000	          0.00000000	
1.161	         49.02496300	       1171.95935100	        -22.06806200	          0.92429800	          0.00000000	         -0.28917800	          0.00000000	          0.00000000	          0.00000000	          0.00000000	          0.00000000	          0.00000000	          0.00000000	          0.26653000	          0.00000000	          0.00000000	          0.00000000	          0.00000000	
1.162	         50.94535800	       1162.30847200	        -21.23295200	          0.92292300	          0.00000000	         -0.28929100	          0.00000000	          0.00000000	          0.00000000	          0.00000000	          0.00000000	          0.00000000	          0.00000000	          0.21903500	          0.00000000	          0.00000000	          0.00000000	          0.00000000	
1.163	         52.82207100	       1152.53991700	        -20.40198500	          0.92155000	          0.00000000	         -0.28940700	          0.00000000	          0.00000000	          0.00000000	          0.00000000	          0.00000000	          0.00000000	          0.00000000	          0.17165600	          0.00000000	          0.00000000	          0.00000000	          0.00000000	
1.164	         54.65543000	       1142.65734900	        -19.57609600	          0.92018000	          0.00000000	         -0.28952700	          0.00000000	          0.00000000	          0.00000000	          0.00000000	          0.00000000	          0.00000000	          0.00000000	          0.12449100	          0.00000000	          0.00000000	          0.00000000	          0.00000000	
1.165	         56.44604900	       1132.66503900	        -18.75618900	          0.91881200	          0.00000000	         -0.28965000	          0.00000000	          0.00000000	          0.00000000	          0.00000000	          0.00000000	          0.00000000	          0.00000000	          0.07764200	          0.00000000	          0.00000000	          0.00000000	          0.00000000	
1.166	         58.19471000	       1122.56750500	        -17.94313400	          0.91744700	          0.00000000	         -0.28977600	          0.00000000	          0.00000000	          0.00000000	          0.00000000	          0.00000000	          0.00000000	          0.00000000	          0.03120800	          0.00000000	          0.00000000	          0.00000000	          0.00000000	
1.167	         59.90228300	       1112.36962900	        -17.13776800	          0.91608500	          0.00000000	         -0.28990400	          0.00000000	          0.00000000	          0.00000000	          0.00000000	          0.00000000	          0.00000000	          0.00000000	         -0.01471000	          0.00000000	          0.00000000	          0.00000000	          0.00000000	
1.168	         61.56962600	       1102.07666000	        -16.34088100	          0.91472500	          0.00000000	         -0.29003700	          0.00000000	          0.00000000	          0.00000000	          0.00000000	          0.00000000	          0.00000000	          0.00000000	         -0.06001200	          0.00000000	          0.00000000	          0.00000000	          0.00000000	
1.169	         63.19751700	       1091.69384800	        -15.55323900	          0.91336800	          0.00000000	         -0.29017200	          0.00000000	          0.00000000	          0.00000000	          0.00000000	          0.00000000	          0.00000000	          0.00000000	         -0.10459700	          0.00000000	          0.00000000	          0.00000000	          0.00000000	
1.17	         64.78659100	       1081.22668500	        -14.77556300	          0.91201500	          0.00000000	         -0.29030900	          0.00000000	          0.00000000	          0.00000000	          0.00000000	          0.00000000	          0.00000000	          0.00000000	         -0.14836900	          0.00000000	          0.00000000	          0.00000000	          0.00000000	
1.171	         66.33731100	       1070.68078600	        -14.00854700	          0.91066400	          0.00000000	         -0.29045000	          0.00000000	          0.00000000	          0.00000000	          0.00000000	          0.00000000	          0.00000000	          0.00000000	         -0.19122900	          0.00000000	          0.00000000	          0.00000000	          0.00000000	
1.172	         67.84995300	       1060.06164600	        -13.25285200	          0.90931600	          0.00000000	         -0.29059300	          0.00000000	          0.00000000	          0.00000000	          0.00000000	          0.00000000	          0.00000000	          0.00000000	         -0.23308300	          0.00000000	          0.00000000	          0.00000000	          0.00000000	
1.173	         69.32460800	       1049.37475600	        -12.50911900	          0.90797000	          0.00000000	         -0.29073900	          0.00000000	          0.00000000	          0.00000000	          0.00000000	          0.00000000	          0.00000000	          0.00000000	         -0.27383700	          0.00000000	          0.00000000	          0.00000000	          0.00000000	
1.174	         70.76121500	       1038.62573200	        -11.77796500	          0.90662700	          0.00000000	         -0.29088600	          0.00000000	          0.00000000	          0.00000000	          0.00000000	          0.00000000	          0.00000000	          0.00000000	         -0.31340100	          0.00000000	          0.00000000	          0.00000000	          0.00000000	
1.175	         72.15961500	       1027.81994600	        -11.05999200	          0.90528600	          0.00000000	         -0.29103500	          0.00000000	          0.00000000	          0.00000000	          0.00000000	          0.00000000	          0.00000000	          0.00000000	         -0.35168700	          0.00000000	          0.00000000	          0.00000000	          0.00000000	
1.176	         73.51956200	       1016.96264600	        -10.35579200	          0.90394600	          0.00000000	         -0.29118600	          0.00000000	          0.00000000	          0.00000000	          0.00000000	          0.00000000	          0.00000000	          0.00000000	         -0.38861100	          0.00000000	          0.00000000	          0.00000000	          0.00000000	
1.177	         74.84084300	       1006.05920400	         -9.66594800	          0.90260800	          0.00000000	         -0.29133800	          0.00000000	          0.00000000	          0.00000000	          0.00000000	          0.00000000	          0.00000000	          0.00000000	         -0.42409000	          0.00000000	          0.00000000	          0.00000000	          0.00000000	
1.178	         76.12326000	        995.11450200	         -8.99104000	          0.90127100	          0.00000000	         -0.29149200	          0.00000000	          0.00000000	          0.00000000	          0.00000000	          0.00000000	          0.00000000	          0.00000000	         -0.45804800	          0.00000000	          0.00000000	          0.00000000	          0.00000000	
1.179	         77.36673700	        984.13342300	         -8.33164400	          0.89993400	          0.00000000	         -0.29164600	          0.00000000	          0.00000000	          0.00000000	          0.00000000	          0.00000000	          0.00000000	          0.00000000	         -0.49041100	          0.00000000	          0.00000000	          0.00000000	          0.00000000	
1.18	         78.57134200	        973.12066700	         -7.68833500	          0.89859700	          0.00000000	         -0.29180000	          0.00000000	          0.00000000	          0.00000000	          0.00000000	          0.00000000	          0.00000000	          0.00000000	         -0.52110900	          0.00000000	          0.00000000	          0.00000000	          0.00000000	
1.181	         79.73729700	        962.08056600	         -7.06168900	          0.89725800	          0.00000000	         -0.29195500	          0.00000000	          0.00000000	          0.00000000	          0.00000000	          0.00000000	          0.00000000	          0.00000000	         -0.55007900	          0.00000000	          0.00000000	          0.00000000	          0.00000000	
1.182	         80.86499800	        951.01727300	         -6.45227600	          0.89591700	          0.00000000	         -0.29210900	          0.00000000	          0.00000000	          0.00000000	          0.00000000	          0.00000000	          0.00000000	          0.00000000	         -0.57726100	          0.00000000	          0.00000000	          0.00000000	          0.00000000	
